<svg width="664" height="665" viewBox="0 0 664 665" fill="none" xmlns="http://www.w3.org/2000/svg">
<g clip-path="url(#clip0_2002_47)">
<path opacity="0.2" d="M663.459 504.085V333.877H663.999V331.998H663.459V161.791C663.449 120.049 647.205 79.9474 618.163 49.9658V46.8775H663.459V44.9858H619.475L661.709 2.52078L660.422 1.23396L618.201 43.699V2.1476H616.323V44.9858H613.131C583.581 16.7383 544.283 0.962883 503.404 0.937988H160.042C119.18 0.976116 79.9032 16.7505 50.3661 44.9858H47.162V2.1476H45.2961V43.6604L3.0755 1.19535L1.78868 2.48217L44.0092 44.9472H2.67659V46.826H45.2961V49.9658C16.25 79.9451 0.00579511 120.048 0 161.791V504.085C0.00579511 545.827 16.25 585.93 45.2961 615.909V619.049H2.67659V620.928H43.9706L1.75008 663.393L3.0369 664.68L45.2575 622.215V663.728H47.1234V620.889H50.3275C79.8742 649.134 119.167 664.909 160.042 664.937H503.404C544.27 664.902 583.552 649.128 613.093 620.889H616.284V663.728H618.163V622.215L660.383 664.68L661.67 663.393L619.437 620.928H663.999V619.049H618.163V615.909C647.198 585.923 663.441 545.825 663.459 504.085ZM661.58 504.085C661.577 544.662 646.041 583.698 618.163 613.181V451.904H660.911V450.038H618.163V333.877H661.58V504.085ZM449.525 450.038L448.238 448.751C450.374 446.581 452.446 444.35 454.453 442.06V450.038H449.525ZM454.453 451.917V454.993L451.391 451.917H454.453ZM210.073 450.038V443.282C211.746 445.148 213.471 446.963 215.221 448.751L213.934 450.038H210.073ZM212.068 451.917L210.073 453.899V451.904L212.068 451.917ZM213.934 215.837L215.221 217.124C213.471 218.912 211.746 220.74 210.073 222.593V215.837H213.934ZM210.073 213.958V211.977L212.068 213.971L210.073 213.958ZM454.453 215.837V223.815C452.446 221.525 450.374 219.294 448.238 217.124L449.525 215.837H454.453ZM451.391 213.958L454.453 210.883V213.958H451.391ZM454.453 331.985H450.052C449.857 301.112 437.666 271.524 416.055 249.474L446.938 218.462C449.512 221.096 452.026 223.828 454.479 226.659L454.453 331.985ZM456.319 228.885C480.321 257.894 493.511 294.334 493.637 331.985H456.319V228.885ZM414.729 250.761C436.001 272.447 448 301.558 448.187 331.934H333.981L414.729 250.761ZM332.669 330.544V215.837C362.941 216.048 391.925 228.115 413.404 249.449L332.669 330.544ZM330.79 330.544L250.042 249.359C271.545 228.064 300.528 216.032 330.79 215.837V330.544ZM329.503 331.831H215.272C215.466 301.456 227.464 272.348 248.729 250.658L329.503 331.831ZM329.503 333.71L248.755 414.882C227.49 393.193 215.492 364.084 215.298 333.71H329.503ZM330.79 334.997V450.038C300.512 449.826 271.523 437.754 250.042 416.414L330.79 334.997ZM332.669 334.997L413.404 416.169C391.969 437.601 362.979 449.763 332.669 450.038V334.997ZM333.956 333.71H448.148C447.961 364.086 435.962 393.197 414.691 414.882L333.956 333.71ZM445.587 217.124L414.704 248.149C397.752 231.332 376.09 220.063 352.589 215.837H444.275L445.587 217.124ZM332.669 213.958V170.116C373.451 170.316 412.636 185.99 442.306 213.971L332.669 213.958ZM330.79 213.958H221.153C250.817 185.969 290.006 170.294 330.79 170.103V213.958ZM310.857 215.837C287.349 220.064 265.678 231.332 248.717 248.149L217.833 217.124L219.12 215.837H310.857ZM216.546 218.411L247.43 249.423C225.809 271.466 213.615 301.058 213.432 331.934H210.099V225.437C212.171 223.056 214.32 220.727 216.546 218.475V218.411ZM208.208 331.934H169.77C169.914 293.706 183.523 256.751 208.208 227.56V331.934ZM208.208 333.813V438.187C183.523 408.996 169.914 372.041 169.77 333.813H208.208ZM210.073 333.813H213.406C213.587 364.685 225.781 394.274 247.404 416.311L216.52 447.336C214.294 445.084 212.145 442.755 210.086 440.374L210.073 333.813ZM217.872 448.751L248.755 417.726C265.707 434.537 287.362 445.804 310.857 450.038H219.184L217.872 448.751ZM330.79 451.917V495.772C290.006 495.581 250.817 479.906 221.153 451.917H330.79ZM332.669 451.917H442.306C412.636 479.898 373.451 495.572 332.669 495.772V451.917ZM352.589 450.038C376.099 445.817 397.771 434.548 414.729 417.726L445.613 448.751L444.326 450.038H352.589ZM446.913 447.465L416.029 416.439C437.643 394.397 449.835 364.812 450.027 333.941H454.428V439.268C452.026 442.047 449.521 444.779 446.913 447.465ZM456.319 333.941H493.637C493.511 371.592 480.321 408.032 456.319 437.041V333.941ZM495.554 332.063C495.411 293.201 481.511 255.645 456.319 226.054V215.837H555.276C573.903 251.725 583.668 291.551 583.753 331.985L495.554 332.063ZM456.319 214.035V209.068L510.597 154.52C527.98 172.126 542.698 192.176 554.285 214.035H456.319ZM456.319 206.417V112.66C475.677 123.752 493.482 137.355 509.272 153.117L456.319 206.417ZM454.453 208.296L448.753 214.035H445.034C414.881 184.857 374.627 168.446 332.669 168.225V79.5884C375.332 79.6821 417.26 90.7046 454.453 111.605V208.296ZM330.79 168.225C288.842 168.423 248.589 184.806 218.425 213.958H214.706L210.073 209.3V110.987C247.008 90.475 288.542 79.6676 330.79 79.5756V168.225ZM208.208 207.434L154.161 153.117C170.252 137.067 188.431 123.255 208.208 112.055V207.434ZM208.208 210.098V213.958H109.122C120.705 192.096 135.424 172.045 152.81 154.443L208.208 210.098ZM208.208 215.85V224.729C182.35 254.5 168.043 292.566 167.891 331.998H79.7056C79.789 291.56 89.5537 251.729 108.183 215.837L208.208 215.85ZM167.891 333.877C168.043 373.309 182.35 411.376 208.208 441.146V450.038H108.183C89.5557 414.15 79.7911 374.324 79.7056 333.89L167.891 333.877ZM208.208 451.904V455.765L152.874 511.394C135.488 493.791 120.77 473.741 109.187 451.878L208.208 451.904ZM208.208 458.441V553.82C188.431 542.62 170.252 528.808 154.161 512.758L208.208 458.441ZM210.073 456.562L214.706 451.904H218.425C248.587 481.061 288.84 497.449 330.79 497.651V586.313C288.542 586.21 247.009 575.398 210.073 554.888V456.562ZM332.669 497.651C374.617 497.45 414.869 481.067 445.034 451.917H448.753L454.453 457.656V554.271C417.259 575.169 375.332 586.195 332.669 586.3V497.651ZM456.319 459.535L509.272 512.771C493.476 528.526 475.672 542.129 456.319 553.228V459.535ZM456.319 456.884V451.917H554.285C542.698 473.777 527.98 493.827 510.597 511.432L456.319 456.884ZM456.319 450.038V439.898C481.511 410.307 495.411 372.752 495.554 333.89H583.753C583.668 374.324 573.903 414.15 555.276 450.038H456.319ZM585.619 333.89H616.284V450.038H557.386C575.862 414.1 585.539 374.287 585.619 333.877V333.89ZM585.619 332.011C585.541 291.597 575.864 251.78 557.386 215.837H616.284V331.985L585.619 332.011ZM556.395 213.984C544.651 191.619 529.664 171.113 511.923 153.13L615.1 49.4511L615.19 49.5283C615.576 49.9272 615.962 50.3519 616.348 50.8151V213.971L556.395 213.984ZM613.685 48.1514L510.597 151.792C494.435 135.66 476.179 121.771 456.319 110.498V46.8646H612.346L613.685 48.1514ZM454.453 109.456C417.202 88.7297 375.298 77.8021 332.669 77.6968V46.8131H454.453V109.456ZM332.669 44.9858V2.81674H454.453V44.9858H332.669ZM330.79 44.9858H210.073V2.81674H330.79V44.9858ZM330.79 46.8646V77.7483C288.576 77.8471 247.064 88.5603 210.073 108.902V46.8646H330.79ZM208.208 109.919C187.938 121.29 169.32 135.383 152.874 151.805L49.7871 48.1643L51.0739 46.8775H208.208V109.919ZM48.333 49.5283L48.4102 49.4511L151.536 153.117C133.787 171.096 118.796 191.603 107.051 213.971H47.162V50.7637C47.6124 50.3519 47.9341 49.9272 48.333 49.5283ZM106.073 215.837C87.5987 251.772 77.9223 291.58 77.8398 331.985H47.162V215.837H106.073ZM77.8398 333.864C77.9183 374.278 87.5948 414.096 106.073 450.038H47.162V333.877L77.8398 333.864ZM107.051 451.891C118.796 474.259 133.787 494.766 151.536 512.745L48.4102 616.424L48.333 616.347C47.9341 615.948 47.5609 615.523 47.162 615.06V451.904L107.051 451.891ZM49.7742 617.724L152.861 514.083C169.311 530.506 187.927 544.602 208.195 555.982V619.036H51.1125L49.7742 617.724ZM210.073 557.025C247.064 577.366 288.576 588.08 330.79 588.178V619.062H210.073V557.025ZM330.79 620.889V663.058H210.073V620.889H330.79ZM332.669 620.889H454.453V663.058H332.669V620.889ZM332.669 619.011V588.127C375.298 588.022 417.202 577.094 454.453 556.368V618.959L332.669 619.011ZM456.319 555.377C476.179 544.104 494.435 530.216 510.597 514.083L613.685 617.724L612.398 619.011H456.319V555.377ZM615.1 616.347L615.01 616.424L511.897 512.758C529.639 494.775 544.625 474.269 556.37 451.904H616.258V615.112L615.1 616.347ZM661.58 161.791V331.998H618.163V215.837H660.911V213.958H618.163V52.7325C646.032 82.2061 661.567 121.227 661.58 161.791ZM610.39 44.9472H456.319V2.81674H503.404C543.114 2.84607 581.34 17.9129 610.39 44.9858V44.9472ZM160.003 2.77814H208.208V44.9472H53.0685C82.1211 17.8902 120.341 2.83755 160.042 2.81674L160.003 2.77814ZM1.86589 504.085V161.791C1.87391 121.212 17.4138 82.1759 45.2961 52.6939V213.932H2.57364V215.837H45.2961V331.985H2.41922V333.864H45.2961V450.038H2.57364V451.917H45.2961V613.156C17.4199 583.68 1.88049 544.654 1.86589 504.085ZM53.0685 620.928H208.208V663.097H160.042C120.331 663.055 82.1092 647.975 53.0685 620.889V620.928ZM503.456 663.097H456.319V620.889H610.39C581.338 647.96 543.114 663.027 503.404 663.058L503.456 663.097Z" fill="url(#paint0_radial_2002_47)"/>
<mask id="mask0_2002_47" style="mask-type:alpha" maskUnits="userSpaceOnUse" x="-13" y="0" width="592" height="665">
<path d="M578.988 0H-12.7969V664.938H578.988V0Z" fill="url(#paint1_linear_2002_47)"/>
</mask>
<g mask="url(#mask0_2002_47)">
<path d="M146.469 478.965C146.469 473.837 146.469 471.274 147.483 469.322C148.337 467.678 149.678 466.337 151.322 465.483C153.273 464.469 155.837 464.469 160.964 464.469H210.753C215.881 464.469 218.444 464.469 220.396 465.483C222.04 466.337 223.381 467.678 224.235 469.322C225.249 471.274 225.249 473.837 225.249 478.965V528.754C225.249 533.881 225.249 536.445 224.235 538.396C223.381 540.04 222.04 541.381 220.396 542.235C218.444 543.249 215.881 543.249 210.753 543.249H160.964C155.837 543.249 153.273 543.249 151.322 542.235C149.678 541.381 148.337 540.04 147.483 538.396C146.469 536.445 146.469 533.881 146.469 528.754V478.965Z" fill="white" fill-opacity="0.1"/>
<path d="M210.753 464H160.964H160.942C158.397 464 156.459 464 154.913 464.129C153.358 464.258 152.16 464.519 151.106 465.067C149.376 465.966 147.965 467.376 147.066 469.106C146.519 470.16 146.257 471.359 146.128 472.914C146 474.459 146 476.398 146 478.942V478.965V528.754V528.776C146 531.321 146 533.259 146.128 534.805C146.257 536.36 146.519 537.558 147.066 538.612C147.965 540.342 149.376 541.753 151.106 542.651C152.16 543.199 153.358 543.46 154.913 543.59C156.458 543.718 158.397 543.718 160.942 543.718H160.964H210.753H210.776C213.321 543.718 215.259 543.718 216.804 543.59C218.36 543.46 219.558 543.199 220.612 542.651C222.342 541.753 223.753 540.342 224.651 538.612C225.199 537.558 225.46 536.36 225.59 534.805C225.718 533.259 225.718 531.321 225.718 528.776V528.754V478.965V478.942C225.718 476.398 225.718 474.459 225.59 472.914C225.46 471.359 225.199 470.16 224.651 469.106C223.753 467.376 222.342 465.966 220.612 465.067C219.558 464.519 218.36 464.258 216.804 464.129C215.259 464 213.321 464 210.776 464H210.753Z" stroke="white" stroke-opacity="0.2" stroke-width="0.937853"/>
<mask id="mask1_2002_47" style="mask-type:luminance" maskUnits="userSpaceOnUse" x="158" y="476" width="56" height="56">
<path d="M213.056 476.662H158.66V531.057H213.056V476.662Z" fill="white"/>
</mask>
<g mask="url(#mask1_2002_47)">
<path d="M162.06 476.662H209.656L205.327 525.534L185.806 531.057L166.394 525.532L162.06 476.662ZM200.794 486.664L170.922 486.657L171.405 492.6L194.353 492.604L193.775 498.76H178.725L179.269 504.592H193.281L192.451 512.576L185.856 514.399L179.156 512.563L178.73 507.78H172.815L173.472 516.518L185.858 520.378L198.036 516.91L200.794 486.666V486.664Z" fill="white"/>
</g>
<path d="M359.185 66.2432H309.479C301.709 66.2432 295.411 72.5415 295.411 80.311V130.017C295.411 137.787 301.709 144.085 309.479 144.085H359.185C366.955 144.085 373.253 137.787 373.253 130.017V80.311C373.253 72.5415 366.955 66.2432 359.185 66.2432Z" fill="white" fill-opacity="0.1"/>
<path d="M359.185 65.7742H309.479C301.451 65.7742 294.942 72.2825 294.942 80.311V130.017C294.942 138.046 301.451 144.554 309.479 144.554H359.185C367.214 144.554 373.722 138.046 373.722 130.017V80.311C373.722 72.2826 367.214 65.7742 359.185 65.7742Z" stroke="white" stroke-opacity="0.2" stroke-width="0.937853"/>
<path d="M347.7 127.057C349.268 129.617 351.308 131.499 354.916 131.499C357.947 131.499 359.883 129.984 359.883 127.891C359.883 125.383 357.894 124.494 354.558 123.035L352.729 122.251C347.451 120.002 343.944 117.185 343.944 111.229C343.944 105.743 348.124 101.567 354.657 101.567C359.307 101.567 362.651 103.186 365.06 107.424L359.364 111.081C358.11 108.832 356.757 107.946 354.657 107.946C352.514 107.946 351.156 109.305 351.156 111.081C351.156 113.275 352.515 114.164 355.654 115.523L357.482 116.306C363.697 118.971 367.206 121.688 367.206 127.797C367.206 134.383 362.033 137.991 355.085 137.991C348.292 137.991 343.903 134.753 341.756 130.51L347.7 127.057ZM321.861 127.691C323.01 129.73 324.055 131.453 326.568 131.453C328.971 131.453 330.487 130.513 330.487 126.857V101.985H337.802V126.956C337.802 134.53 333.361 137.977 326.879 137.977C321.023 137.977 317.631 134.946 315.906 131.296L321.861 127.691Z" fill="white"/>
<path d="M194.812 25.6665H146.044C137.756 25.6665 131.038 32.3847 131.038 40.6721V89.4405C131.038 97.7279 137.756 104.446 146.044 104.446H194.812C203.099 104.446 209.818 97.7279 209.818 89.4405V40.6721C209.818 32.3847 203.099 25.6665 194.812 25.6665Z" fill="white" fill-opacity="0.1"/>
<path d="M194.812 25.1976H146.044C137.497 25.1976 130.569 32.1258 130.569 40.6722V89.4405C130.569 97.9869 137.497 104.915 146.044 104.915H194.812C203.358 104.915 210.286 97.9869 210.286 89.4405V40.6722C210.286 32.1258 203.358 25.1976 194.812 25.1976Z" stroke="white" stroke-opacity="0.2" stroke-width="0.937853"/>
<path d="M170.251 75.8998C186.823 76.1697 200.337 71.5352 200.434 65.5484C200.532 59.5616 187.176 54.4895 170.604 54.2196C154.031 53.9497 140.518 58.5842 140.42 64.571C140.323 70.5579 153.678 75.6299 170.251 75.8998Z" stroke="white" stroke-width="2.73905"/>
<path d="M160.416 70.3146C168.481 84.0287 179.501 92.7918 185.03 89.8876C190.558 86.9834 188.502 73.5117 180.437 59.7977C172.372 46.0837 161.352 37.3206 155.823 40.2248C150.295 43.1289 152.351 56.6006 160.416 70.3146Z" stroke="white" stroke-width="2.73905"/>
<path d="M160.594 59.4744C152.087 72.9185 149.593 86.3161 155.024 89.3988C160.455 92.4814 171.755 84.0818 180.262 70.6377C188.769 57.1935 191.263 43.7959 185.832 40.7133C180.401 37.6306 169.101 46.0303 160.594 59.4744Z" stroke="white" stroke-width="2.73905"/>
<path fill-rule="evenodd" clip-rule="evenodd" d="M181.769 65.3149C180.993 63.7267 180.128 62.1146 179.176 60.4962C178.225 58.8792 177.234 57.3351 176.218 55.8747C174.377 55.714 172.47 55.6142 170.513 55.5823C168.557 55.5505 166.647 55.5882 164.802 55.6888C163.738 57.1153 162.698 58.6263 161.695 60.2115C160.691 61.798 159.774 63.3811 158.946 64.9432C159.722 66.5311 160.587 68.143 161.539 69.7611C162.491 71.3806 163.484 72.9271 164.502 74.3895C166.342 74.55 168.248 74.6497 170.202 74.6815C172.157 74.7134 174.065 74.6758 175.909 74.5753C176.974 73.1468 178.017 71.6335 179.021 70.0458C180.025 68.4595 180.942 66.8767 181.769 65.3149Z" fill="white" fill-opacity="0.2"/>
<path d="M170.365 70.3479C173.454 70.3982 175.996 68.0701 176.044 65.1479C176.091 62.2258 173.626 59.8162 170.538 59.7659C167.449 59.7156 164.907 62.0437 164.859 64.9658C164.812 67.8879 167.277 70.2976 170.365 70.3479Z" fill="white"/>
<path d="M480.475 333.679L429.834 333.099C422.065 333.01 415.695 339.236 415.606 347.005L415.026 397.646C414.937 405.415 421.163 411.785 428.932 411.874L479.572 412.454C487.341 412.543 493.711 406.317 493.8 398.548L494.38 347.907C494.469 340.138 488.244 333.768 480.475 333.679Z" fill="white" fill-opacity="0.1"/>
<path d="M480.48 333.211L429.839 332.63C421.811 332.539 415.228 338.972 415.137 347L414.556 397.641C414.465 405.668 420.898 412.251 428.926 412.343L479.566 412.923C487.594 413.015 494.177 406.581 494.269 398.554L494.849 347.913C494.941 339.885 488.507 333.302 480.48 333.211Z" stroke="white" stroke-opacity="0.2" stroke-width="0.937853"/>
<path d="M441.663 367.843C441.654 368.581 441.727 369.181 441.862 369.622C442.017 370.063 442.211 370.544 442.484 371.066C442.582 371.227 442.62 371.387 442.619 371.527C442.617 371.727 442.494 371.925 442.233 372.122L440.965 372.946C440.784 373.063 440.604 373.121 440.444 373.119C440.245 373.117 440.046 373.015 439.849 372.833C439.573 372.53 439.337 372.208 439.141 371.887C438.945 371.545 438.75 371.163 438.536 370.702C436.958 372.52 434.991 373.416 432.635 373.389C430.959 373.37 429.627 372.876 428.659 371.906C427.692 370.937 427.208 369.654 427.226 368.057C427.246 366.36 427.86 364.99 429.09 363.965C430.319 362.941 431.942 362.441 433.998 362.464C434.677 362.472 435.375 362.54 436.112 362.648C436.85 362.757 437.607 362.925 438.403 363.114L438.42 361.657C438.437 360.14 438.13 359.078 437.518 358.452C436.886 357.826 435.812 357.514 434.275 357.497C433.576 357.489 432.857 357.56 432.116 357.731C431.375 357.903 430.654 358.114 429.952 358.385C429.631 358.521 429.391 358.599 429.251 358.637C429.111 358.675 429.01 358.694 428.931 358.693C428.651 358.69 428.514 358.489 428.519 358.069L428.53 357.091C428.533 356.772 428.576 356.533 428.677 356.394C428.779 356.256 428.96 356.118 429.241 355.982C429.944 355.63 430.786 355.34 431.767 355.112C432.748 354.864 433.787 354.756 434.885 354.768C437.26 354.796 438.991 355.355 440.096 356.445C441.182 357.536 441.722 359.179 441.697 361.375L441.623 367.842L441.663 367.843ZM433.524 370.784C434.182 370.792 434.862 370.68 435.584 370.448C436.305 370.217 436.949 369.785 437.495 369.193C437.819 368.817 438.063 368.4 438.188 367.923C438.313 367.445 438.4 366.867 438.408 366.188L438.417 365.35C437.84 365.204 437.223 365.077 436.585 364.99C435.947 364.902 435.328 364.855 434.71 364.848C433.372 364.833 432.391 365.081 431.726 365.613C431.061 366.144 430.733 366.899 430.722 367.897C430.711 368.835 430.943 369.537 431.436 370.022C431.91 370.526 432.605 370.774 433.524 370.784ZM449.528 373.124C449.169 373.119 448.93 373.057 448.772 372.915C448.614 372.794 448.477 372.513 448.362 372.132L443.847 356.648C443.732 356.247 443.675 355.987 443.677 355.847C443.68 355.528 443.842 355.35 444.162 355.354L446.118 355.376C446.497 355.381 446.756 355.443 446.894 355.585C447.052 355.706 447.169 355.987 447.284 356.368L450.487 369.621L453.752 356.442C453.856 356.044 453.979 355.786 454.14 355.668C454.301 355.55 454.582 355.473 454.941 355.477L456.538 355.496C456.917 355.5 457.176 355.563 457.334 355.704C457.492 355.826 457.629 356.107 457.704 356.487L460.705 369.898L464.312 356.563C464.436 356.165 464.579 355.907 464.72 355.789C464.881 355.671 465.141 355.594 465.501 355.598L467.357 355.62C467.676 355.623 467.854 355.785 467.85 356.124C467.849 356.224 467.828 356.324 467.807 356.443C467.785 356.563 467.744 356.722 467.661 356.941L462.674 372.316C462.549 372.714 462.407 372.972 462.246 373.09C462.085 373.207 461.824 373.284 461.485 373.28L459.768 373.261C459.389 373.256 459.13 373.194 458.972 373.052C458.814 372.911 458.677 372.649 458.602 372.249L455.655 359.339L452.434 372.159C452.33 372.557 452.207 372.815 452.046 372.953C451.884 373.091 451.604 373.147 451.245 373.143L449.528 373.124ZM475.173 373.956C474.135 373.944 473.098 373.813 472.103 373.562C471.107 373.311 470.332 373.042 469.816 372.737C469.499 372.554 469.282 372.352 469.204 372.171C469.126 371.99 469.088 371.79 469.09 371.611L469.102 370.593C469.107 370.174 469.269 369.976 469.568 369.979C469.688 369.981 469.808 370.002 469.927 370.043C470.046 370.084 470.225 370.166 470.424 370.248C471.099 370.556 471.835 370.804 472.611 370.972C473.408 371.141 474.186 371.23 474.984 371.239C476.242 371.253 477.222 371.045 477.906 370.614C478.59 370.182 478.956 369.548 478.966 368.729C478.972 368.17 478.798 367.709 478.443 367.326C478.088 366.942 477.413 366.595 476.439 366.265L473.554 365.333C472.102 364.857 471.032 364.166 470.384 363.261C469.735 362.375 469.407 361.393 469.419 360.355C469.429 359.516 469.617 358.78 469.983 358.145C470.35 357.51 470.835 356.957 471.439 356.525C472.043 356.073 472.726 355.741 473.527 355.511C474.328 355.28 475.168 355.19 476.046 355.2C476.485 355.205 476.944 355.23 477.383 355.295C477.841 355.36 478.259 355.445 478.678 355.53C479.076 355.634 479.454 355.738 479.812 355.862C480.17 355.986 480.448 356.109 480.646 356.231C480.924 356.394 481.122 356.556 481.239 356.737C481.357 356.898 481.415 357.118 481.411 357.398L481.401 358.336C481.396 358.755 481.234 358.973 480.934 358.969C480.774 358.967 480.516 358.885 480.178 358.721C479.047 358.189 477.772 357.915 476.355 357.899C475.217 357.886 474.317 358.055 473.693 358.427C473.07 358.799 472.744 359.375 472.735 360.193C472.728 360.752 472.923 361.233 473.317 361.617C473.712 362.001 474.447 362.389 475.501 362.74L478.325 363.671C479.757 364.147 480.788 364.797 481.397 365.623C482.006 366.448 482.295 367.39 482.283 368.428C482.273 369.286 482.085 370.063 481.738 370.737C481.371 371.412 480.885 372.005 480.26 372.477C479.636 372.969 478.893 373.32 478.032 373.57C477.13 373.839 476.191 373.968 475.173 373.956Z" fill="white"/>
<path d="M478.835 383.701C472.212 388.476 462.641 390.942 454.437 390.848C442.939 390.716 432.627 386.346 424.883 379.19C424.271 378.624 424.839 377.871 425.572 378.319C433.98 383.327 444.385 386.42 455.185 386.544C462.471 386.628 470.493 385.202 477.894 382.173C478.998 381.686 479.922 382.914 478.835 383.701ZM481.605 380.618C480.779 379.53 476.062 380.035 473.923 380.27C473.283 380.343 473.19 379.783 473.774 379.37C477.557 376.778 483.716 377.608 484.424 378.494C485.133 379.401 484.144 385.558 480.597 388.472C480.053 388.925 479.536 388.68 479.783 388.084C480.604 386.117 482.431 381.685 481.605 380.618Z" fill="white"/>
<path d="M275.124 166H224.48C216.71 166 210.412 172.298 210.412 180.068V230.712C210.412 238.481 216.71 244.78 224.48 244.78H275.124C282.893 244.78 289.192 238.481 289.192 230.712V180.068C289.192 172.298 282.893 166 275.124 166Z" fill="white" fill-opacity="0.1"/>
<path d="M275.124 165.531H224.48C216.451 165.531 209.943 172.039 209.943 180.068V230.712C209.943 238.74 216.451 245.249 224.48 245.249H275.124C283.152 245.249 289.66 238.74 289.66 230.712V180.068C289.66 172.039 283.152 165.531 275.124 165.531Z" stroke="white" stroke-opacity="0.2" stroke-width="0.937853"/>
<path d="M255.625 174.45L257.875 174.95L259.7 175.6L261.175 176.35L262.3 177.15L263.15 178L263.775 178.85L264.175 179.675L264.425 180.425L264.525 181.075L264.575 181.575L264.55 181.9V195.25L264.425 196.825L264.1 198.2L263.575 199.35L262.925 200.3L262.175 201.075L261.35 201.7L260.475 202.175L259.6 202.525L258.775 202.775L258.025 202.95L257.375 203.05L256.85 203.1H241.925L240.2 203.225L238.725 203.575L237.475 204.125L236.45 204.8L235.625 205.6L234.95 206.475L234.45 207.375L234.075 208.3L233.825 209.175L233.65 209.975L233.55 210.65L233.5 211.175V218.825H227.925L227.4 218.75L226.7 218.575L225.9 218.275L225.025 217.825L224.125 217.175L223.225 216.275L222.35 215.125L221.55 213.65L220.85 211.825L220.325 209.625L219.975 207L219.85 203.925L220 200.875L220.4 198.275L221 196.1L221.8 194.325L222.7 192.9L223.7 191.8L224.75 190.975L225.8 190.375L226.8 189.975L227.7 189.725L228.5 189.6L229.1 189.575H229.5L229.65 189.6H250.05V187.525H235.45L235.425 180.65L235.375 179.725L235.5 178.875L235.775 178.1L236.2 177.4L236.825 176.75L237.6 176.175L238.55 175.675L239.65 175.225L240.925 174.85L242.375 174.55L243.975 174.3L245.75 174.15L247.675 174.05L249.775 174L252.95 174.125L255.625 174.45ZM239.875 179.4L239.3 180.225L239.1 181.25L239.3 182.275L239.875 183.125L240.7 183.675L241.725 183.9L242.75 183.675L243.575 183.125L244.15 182.275L244.35 181.25L244.15 180.225L243.575 179.4L242.75 178.85L241.725 178.625L240.7 178.85L239.875 179.4ZM272.6 189.275L273.3 189.425L274.1 189.725L274.975 190.175L275.875 190.85L276.775 191.725L277.65 192.9L278.45 194.375L279.15 196.2L279.675 198.4L280.025 201L280.15 204.075L280 207.15L279.6 209.75L279 211.9L278.2 213.675L277.3 215.1L276.3 216.225L275.25 217.05L274.2 217.65L273.2 218.05L272.3 218.275L271.5 218.4L270.9 218.45L270.5 218.425H249.95V220.475H264.55L264.575 227.375L264.625 228.275L264.5 229.125L264.225 229.9L263.8 230.625L263.175 231.25L262.4 231.85L261.45 232.35L260.35 232.775L259.075 233.15L257.625 233.475L256.025 233.7L254.25 233.875L252.325 233.975L250.225 234L247.05 233.9L244.375 233.55L242.125 233.05L240.3 232.425L238.825 231.675L237.7 230.85L236.85 230L236.225 229.15L235.825 228.325L235.575 227.575L235.475 226.95L235.425 226.45L235.45 226.125V212.775L235.575 211.175L235.9 209.825L236.425 208.675L237.075 207.725L237.825 206.925L238.65 206.325L239.525 205.825L240.4 205.475L241.225 205.225L241.975 205.075L242.625 204.975L243.15 204.925L243.475 204.9H258.075L259.8 204.775L261.275 204.425L262.525 203.9L263.55 203.2L264.375 202.4L265.05 201.525L265.55 200.625L265.925 199.725L266.175 198.85L266.35 198.05L266.45 197.35L266.5 196.825V189.175H271.725L272.075 189.2L272.6 189.275ZM256.425 224.9L255.85 225.725L255.65 226.75L255.85 227.775L256.425 228.6L257.25 229.175L258.275 229.375L259.3 229.175L260.125 228.6L260.7 227.775L260.9 226.75L260.7 225.725L260.125 224.9L259.3 224.325L258.275 224.125L257.25 224.325L256.425 224.9Z" fill="white"/>
<path d="M151.181 203.469H100.537C92.7674 203.469 86.469 209.767 86.469 217.537V268.181C86.469 275.95 92.7674 282.249 100.537 282.249H151.181C158.95 282.249 165.249 275.95 165.249 268.181V217.537C165.249 209.767 158.95 203.469 151.181 203.469Z" fill="white" fill-opacity="0.1"/>
<path d="M151.181 203H100.537C92.5083 203 86 209.508 86 217.537V268.181C86 276.209 92.5083 282.717 100.537 282.717H151.181C159.209 282.717 165.717 276.209 165.717 268.181V217.537C165.717 209.508 159.209 203 151.181 203Z" stroke="white" stroke-opacity="0.2" stroke-width="0.937853"/>
<path d="M154.283 229.001C153.837 228.276 153.22 227.644 152.541 227.276L128.976 214.551C127.616 213.816 125.395 213.816 124.037 214.551L100.467 227.276C99.1093 228.009 98 229.809 98 231.276V256.726C98 257.461 98.278 258.276 98.7244 259.001C99.1707 259.726 99.7882 260.358 100.467 260.726L124.031 273.451C125.389 274.183 127.613 274.183 128.971 273.451L152.535 260.726C153.214 260.358 153.832 259.726 154.278 259.001C154.725 258.276 155 257.461 155 256.726V231.276C155.008 230.541 154.733 229.726 154.283 229.001ZM126.501 261.776C116.023 261.776 107.5 253.801 107.5 244.001C107.5 234.201 116.026 226.226 126.504 226.226C129.837 226.232 133.111 227.055 135.998 228.614C138.885 230.172 141.285 232.412 142.958 235.109L134.736 239.558C133.901 238.208 132.7 237.086 131.256 236.305C129.811 235.524 128.172 235.112 126.504 235.109C123.983 235.111 121.566 236.048 119.783 237.715C118.001 239.382 116.999 241.643 116.996 244.001C117 246.357 118.003 248.616 119.784 250.283C121.566 251.949 123.982 252.886 126.501 252.888C128.169 252.885 129.807 252.473 131.251 251.693C132.696 250.913 133.897 249.793 134.734 248.443L142.961 252.893C141.287 255.59 138.886 257.83 135.998 259.389C133.11 260.947 129.836 261.77 126.501 261.776ZM145.506 244.988H143.394V246.963H141.282V244.988H139.171V243.013H141.282V241.038H143.394V243.013H145.506V244.988ZM153.423 244.988H151.311V246.963H149.2V244.988H147.088V243.013H149.2V241.038H151.311V243.013H153.423V244.988Z" fill="white"/>
<path d="M425.332 216.795H374.688C366.918 216.795 360.62 223.093 360.62 230.863V281.507C360.62 289.276 366.918 295.575 374.688 295.575H425.332C433.101 295.575 439.4 289.276 439.4 281.507V230.863C439.4 223.093 433.101 216.795 425.332 216.795Z" fill="white" fill-opacity="0.1"/>
<path d="M425.332 216.326H374.688C366.659 216.326 360.151 222.834 360.151 230.863V281.507C360.151 289.535 366.659 296.043 374.688 296.043H425.332C433.36 296.043 439.868 289.535 439.868 281.507V230.863C439.868 222.834 433.36 216.326 425.332 216.326Z" stroke="white" stroke-opacity="0.2" stroke-width="0.937853"/>
<mask id="mask2_2002_47" style="mask-type:luminance" maskUnits="userSpaceOnUse" x="369" y="226" width="62" height="61">
<path d="M430.077 226.231L370.055 226.116L369.94 286.138L429.962 286.254L430.077 226.231Z" fill="white"/>
</mask>
<g mask="url(#mask2_2002_47)">
<path d="M369.959 276.345C370.064 277.671 370.529 279.005 371.746 280.795C373.193 282.921 375.681 284.092 377.503 282.224C378.731 280.964 392.041 257.803 398.45 249.027C398.626 248.776 398.86 248.571 399.132 248.43C399.404 248.289 399.706 248.216 400.012 248.216C400.318 248.217 400.62 248.291 400.892 248.433C401.163 248.576 401.396 248.781 401.571 249.033C407.947 257.833 421.167 281.045 422.39 282.31C424.205 284.185 426.698 283.024 428.152 280.903C429.582 278.818 429.98 277.356 429.983 275.79C429.985 274.725 409.401 236.241 407.326 233.035C405.332 229.955 404.723 229.284 401.339 229.167L398.758 229.162C395.374 229.266 394.763 229.933 392.753 233.007C390.712 236.137 370.791 273.03 369.961 275.56L369.959 276.345Z" fill="white"/>
</g>
<path d="M536.709 162.469H474.071C469.873 162.469 466.469 165.873 466.469 170.071V232.709C466.469 236.908 469.873 240.311 474.071 240.311H536.709C540.908 240.311 544.311 236.908 544.311 232.709V170.071C544.311 165.873 540.908 162.469 536.709 162.469Z" fill="white" fill-opacity="0.1"/>
<path d="M536.709 162H474.071C469.614 162 466 165.614 466 170.071V232.709C466 237.167 469.614 240.78 474.071 240.78H536.709C541.167 240.78 544.78 237.167 544.78 232.709V170.071C544.78 165.614 541.167 162 536.709 162Z" stroke="white" stroke-opacity="0.2" stroke-width="0.937853"/>
<path d="M506.274 203.639C506.389 201.403 507.369 199.429 508.849 198.032C510.402 196.59 512.361 195.808 514.379 195.824C516.504 195.824 518.457 196.662 519.907 198.032C521.387 199.429 522.364 201.403 522.477 203.636C522.589 205.936 521.764 208.069 520.314 209.654C518.717 211.359 516.588 212.3 514.379 212.276C512.17 212.3 510.038 211.36 508.439 209.654C506.989 208.069 506.162 205.936 506.274 203.639ZM493.374 208.159C493.389 209.036 493.639 210.736 494.014 212.066C494.824 214.928 496.183 217.559 497.997 219.772C499.942 222.163 502.316 224.069 504.964 225.365C507.847 226.786 510.965 227.51 514.114 227.49C517.264 227.497 520.379 226.761 523.257 225.332C525.903 224.023 528.275 222.109 530.219 219.714C532.03 217.493 533.388 214.859 534.199 211.993C534.98 209.218 535.193 206.281 534.824 203.401C534.473 200.642 533.608 197.995 532.284 195.634C531.058 193.436 529.49 191.502 527.654 189.923H527.659L508.914 173.832L508.864 173.79C507.634 172.733 505.567 172.739 504.214 173.795C502.847 174.863 502.692 176.632 503.907 177.75L503.904 177.753L511.719 184.861L487.894 184.889H487.862C485.892 184.892 483.999 186.337 483.624 188.165C483.239 190.024 484.574 191.567 486.624 191.575V191.581L498.699 191.553L477.149 210.048L477.064 210.118C475.032 211.856 474.377 214.752 475.657 216.583C476.957 218.447 479.719 218.45 481.774 216.594L493.534 205.836C493.534 205.836 493.359 207.289 493.374 208.159ZM523.599 213.025C521.174 215.786 517.784 217.352 514.112 217.357C510.437 217.368 507.044 215.814 504.619 213.058C503.474 211.773 502.591 210.227 502.029 208.525C501.515 206.923 501.311 205.218 501.433 203.522C501.555 201.826 501.998 200.178 502.734 198.689C503.467 197.217 504.445 195.916 505.617 194.856C507.972 192.71 510.969 191.55 514.107 191.544C517.247 191.539 520.244 192.69 522.602 194.829C523.802 195.921 524.777 197.216 525.482 198.649C526.212 200.119 526.656 201.744 526.787 203.418C526.919 205.134 526.715 206.861 526.189 208.48C525.628 210.184 524.743 211.734 523.599 213.025Z" fill="white"/>
<path d="M306.709 310.469H244.071C239.873 310.469 236.469 313.873 236.469 318.071V380.709C236.469 384.908 239.873 388.311 244.071 388.311H306.709C310.908 388.311 314.311 384.908 314.311 380.709V318.071C314.311 313.873 310.908 310.469 306.709 310.469Z" fill="white" fill-opacity="0.1"/>
<path d="M306.709 310H244.071C239.614 310 236 313.614 236 318.071V380.709C236 385.167 239.614 388.78 244.071 388.78H306.709C311.167 388.78 314.78 385.167 314.78 380.709V318.071C314.78 313.614 311.167 310 306.709 310Z" stroke="white" stroke-opacity="0.2" stroke-width="0.937853"/>
<path fill-rule="evenodd" clip-rule="evenodd" d="M284.371 372.457V380.059C285.602 380.698 287.107 381.169 288.78 381.488C290.452 381.807 292.276 381.959 294.101 381.959C295.925 381.959 297.598 381.792 299.27 381.443C300.942 381.093 302.311 380.515 303.527 379.77C304.758 378.964 305.808 377.946 306.416 376.577C307.024 375.209 307.495 373.689 307.495 371.712C307.495 370.329 307.282 369.128 306.872 368.063C306.461 366.999 305.868 366.087 305.047 365.327C304.272 364.521 303.375 363.806 302.311 363.198C301.246 362.59 300.03 361.952 298.662 361.374C297.658 360.963 296.837 360.568 295.925 360.173C295.135 359.778 294.451 359.382 293.949 358.987C293.386 358.576 292.961 358.151 292.657 357.71C292.352 357.254 292.2 356.752 292.2 356.19C292.2 355.673 292.336 355.201 292.611 354.776C292.886 354.35 293.265 354 293.751 353.696C294.238 353.392 294.846 353.164 295.576 352.997C296.29 352.83 297.081 352.754 298.008 352.754C298.647 352.754 299.316 352.801 299.985 352.896C300.684 352.992 301.399 353.14 302.113 353.337C302.828 353.535 303.527 353.778 304.242 354.082C304.911 354.386 305.534 354.736 306.066 355.131V347.986C304.911 347.545 303.633 347.21 302.265 346.998C300.897 346.785 299.376 346.678 297.552 346.678C295.728 346.678 294.055 346.876 292.383 347.256C290.71 347.636 289.342 348.244 288.126 349.08C286.894 349.901 285.997 350.905 285.237 352.273C284.523 353.55 284.173 355.01 284.173 356.834C284.173 359.115 284.827 361.091 286.149 362.611C287.457 364.284 289.494 365.5 292.079 366.716C293.128 367.142 294.055 367.568 294.967 367.978C295.88 368.389 296.64 368.815 297.248 369.255C297.902 369.696 298.419 370.183 298.768 370.7C299.148 371.217 299.346 371.825 299.346 372.524C299.346 373.011 299.227 373.467 298.996 373.892C298.765 374.318 298.403 374.683 297.917 374.987C297.43 375.291 296.837 375.534 296.093 375.717C295.378 375.884 294.572 375.975 293.508 375.975C291.836 375.975 290.163 375.686 288.643 375.109C286.97 374.531 285.45 373.664 284.082 372.524L284.371 372.457ZM271.6 353.757H281.33V347.524H254.116V353.757H263.846V381.579H271.6V353.757Z" fill="white"/>
<path d="M347.339 440.791H296.695C288.925 440.791 282.627 447.089 282.627 454.859V505.503C282.627 513.272 288.925 519.571 296.695 519.571H347.339C355.108 519.571 361.407 513.272 361.407 505.503V454.859C361.407 447.089 355.108 440.791 347.339 440.791Z" fill="white" fill-opacity="0.1"/>
<path d="M347.339 440.322H296.695C288.666 440.322 282.158 446.83 282.158 454.859V505.503C282.158 513.531 288.666 520.04 296.695 520.04H347.339C355.367 520.04 361.875 513.531 361.875 505.503V454.859C361.875 446.83 355.367 440.322 347.339 440.322Z" stroke="white" stroke-opacity="0.2" stroke-width="0.937853"/>
<mask id="mask3_2002_47" style="mask-type:luminance" maskUnits="userSpaceOnUse" x="294" y="452" width="56" height="56">
<path d="M349.367 452.982H294.818V507.531H349.367V452.982Z" fill="white"/>
</mask>
<g mask="url(#mask3_2002_47)">
<path d="M322.093 453.657C307.025 453.657 294.818 465.874 294.818 480.932C294.818 492.989 302.633 503.208 313.462 506.814C314.831 507.071 315.326 506.227 315.326 505.498C315.326 504.85 315.31 503.137 315.3 500.863C307.709 502.506 306.11 497.196 306.11 497.196C304.867 494.052 303.074 493.209 303.074 493.209C300.606 491.523 303.27 491.559 303.27 491.559C306.004 491.744 307.443 494.363 307.443 494.363C309.876 498.536 313.825 497.329 315.389 496.627C315.627 494.869 316.338 493.66 317.112 492.987C311.057 492.303 304.69 489.96 304.69 479.508C304.69 476.523 305.747 474.093 307.494 472.183C307.193 471.5 306.269 468.721 307.735 464.964C307.735 464.964 310.017 464.236 315.235 467.761C317.419 467.156 319.737 466.855 322.054 466.839C324.372 466.855 326.689 467.158 328.872 467.761C334.06 464.236 336.341 464.964 336.341 464.964C337.805 468.721 336.881 471.498 336.615 472.183C338.345 474.093 339.402 476.525 339.402 479.508C339.402 489.983 333.027 492.293 326.965 492.96C327.913 493.776 328.801 495.455 328.801 498.004C328.801 501.652 328.767 504.591 328.767 505.479C328.767 506.188 329.244 507.04 330.649 506.766C341.559 503.198 349.364 492.97 349.364 480.93C349.364 465.873 337.157 453.655 322.09 453.655L322.093 453.657Z" fill="white"/>
</g>
<path d="M483.181 472.468H432.537C424.767 472.468 418.469 478.766 418.469 486.536V537.18C418.469 544.949 424.767 551.248 432.537 551.248H483.181C490.95 551.248 497.249 544.949 497.249 537.18V486.536C497.249 478.766 490.95 472.468 483.181 472.468Z" fill="white" fill-opacity="0.1"/>
<path d="M483.181 472H432.537C424.508 472 418 478.508 418 486.537V537.181C418 545.209 424.508 551.718 432.537 551.718H483.181C491.209 551.718 497.717 545.209 497.717 537.181V486.537C497.717 478.508 491.209 472 483.181 472Z" stroke="white" stroke-opacity="0.2" stroke-width="0.937853"/>
<path d="M431.604 480.909C431.037 480.909 430.614 481.371 430.665 481.936L435.447 535.584C435.498 536.149 435.986 536.736 436.533 536.888L456.829 542.523C457.376 542.675 458.27 542.675 458.817 542.523L479.175 536.879C479.722 536.727 480.211 536.141 480.261 535.576L485.052 481.936C485.103 481.371 484.679 480.909 484.112 480.909H431.604ZM474.866 493.213C474.821 493.717 474.743 494.592 474.692 495.157L474.566 496.564C474.516 497.129 474.443 497.937 474.405 498.36C474.367 498.782 474.331 499.128 474.325 499.128C474.318 499.128 473.849 499.128 473.281 499.128H458.89C458.322 499.128 457.853 499.128 457.847 499.128C457.841 499.128 457.372 499.128 456.804 499.128H449.225C448.658 499.128 448.235 499.59 448.285 500.155L448.727 505.097C448.778 505.662 449.283 506.124 449.851 506.124H456.805C457.372 506.124 457.841 506.124 457.847 506.124C457.854 506.124 458.323 506.124 458.89 506.124H470.843C471.41 506.124 472.288 506.124 472.794 506.124C473.299 506.124 473.675 506.537 473.63 507.041C473.584 507.545 473.505 508.42 473.455 508.985L472.033 524.917C471.982 525.482 471.918 526.204 471.89 526.521C471.862 526.838 471.392 527.222 470.845 527.373L458.852 530.699C458.306 530.85 457.851 530.976 457.843 530.977C457.834 530.979 457.38 530.857 456.833 530.705L444.828 527.374C444.281 527.222 443.793 526.635 443.742 526.07L442.969 517.396C442.919 516.831 443.342 516.369 443.91 516.369H445.005C445.573 516.369 446.501 516.369 447.068 516.369H448.702C449.269 516.369 449.775 516.831 449.825 517.396L450.128 520.792C450.179 521.357 450.668 521.94 451.216 522.088L456.832 523.605C457.379 523.753 457.829 523.874 457.832 523.874C457.834 523.874 458.284 523.752 458.832 523.604L464.458 522.084C465.005 521.936 465.495 521.353 465.546 520.788L466.156 513.985C466.206 513.42 465.784 512.958 465.216 512.958H458.89C458.323 512.958 457.854 512.958 457.847 512.958C457.841 512.958 457.372 512.958 456.805 512.958H443.604C443.036 512.958 442.531 512.495 442.481 511.93L440.984 495.157C440.933 494.592 440.855 493.717 440.81 493.213C440.765 492.709 441.193 492.296 441.76 492.296H456.805C457.372 492.296 457.841 492.296 457.847 492.296C457.854 492.296 458.323 492.296 458.89 492.296H473.916C474.484 492.296 474.911 492.709 474.866 493.213Z" fill="white"/>
<path d="M504.181 54.468H453.537C445.767 54.468 439.469 60.7664 439.469 68.5358V119.18C439.469 126.949 445.767 133.248 453.537 133.248H504.181C511.95 133.248 518.249 126.949 518.249 119.18V68.5358C518.249 60.7664 511.95 54.468 504.181 54.468Z" fill="white" fill-opacity="0.1"/>
<path d="M481.729 76.6613L490.849 81.5953C491.177 81.7686 491.189 82.2489 490.849 82.4222L480.012 88.2893C479.858 88.3743 479.682 88.4192 479.503 88.4192C479.324 88.4192 479.148 88.3743 478.993 88.2893L468.157 82.4222C467.823 82.2546 467.817 81.7629 468.157 81.5953L477.271 76.661V67L454 79.5948V104.784L462.923 99.9566V90.0886C462.917 89.7365 463.358 89.4851 463.686 89.675L474.523 95.5422C474.678 95.6257 474.807 95.7461 474.897 95.8913C474.987 96.0365 475.035 96.2013 475.035 96.3693V108.098C475.041 108.45 474.6 108.701 474.272 108.511L465.153 103.577L456.229 108.405L479.5 121L502.771 108.405L493.847 103.577L484.728 108.511C484.406 108.696 483.953 108.456 483.965 108.098V96.3693C483.965 96.0171 484.173 95.7042 484.477 95.5422L495.314 89.675C495.635 89.4905 496.089 89.7254 496.077 90.0886V99.9566L505 104.784V79.5948L481.729 67V76.6613Z" fill="white"/>
<path d="M504.181 54H453.537C445.508 54 439 60.5083 439 68.5367V119.181C439 127.209 445.508 133.718 453.537 133.718H504.181C512.209 133.718 518.717 127.209 518.717 119.181V68.5367C518.717 60.5083 512.209 54 504.181 54Z" stroke="white" stroke-opacity="0.2" stroke-width="0.937853"/>
<path d="M132.181 333.468H81.5368C73.7674 333.468 67.469 339.766 67.469 347.536V398.18C67.469 405.949 73.7674 412.248 81.5368 412.248H132.181C139.95 412.248 146.249 405.949 146.249 398.18V347.536C146.249 339.766 139.95 333.468 132.181 333.468Z" fill="white" fill-opacity="0.1"/>
<path d="M132.181 333H81.5367C73.5083 333 67 339.508 67 347.537V398.181C67 406.209 73.5083 412.718 81.5367 412.718H132.181C140.209 412.718 146.717 406.209 146.717 398.181V347.537C146.717 339.508 140.209 333 132.181 333Z" stroke="white" stroke-opacity="0.2" stroke-width="0.937853"/>
</g>
<path d="M122.996 395.451C118.706 398.324 113.546 400 108 400C93.0982 400 81 387.902 81 373C81 358.098 93.0982 346 108 346C122.902 346 135 358.098 135 373C135 381.062 131.459 388.302 125.849 393.252L101.743 362.2H97.2V383.791H100.834V366.815L122.996 395.451ZM115.499 376.251L119.099 380.888V362.2H115.499V376.251Z" fill="white"/>
</g>
<defs>
<radialGradient id="paint0_radial_2002_47" cx="0" cy="0" r="1" gradientUnits="userSpaceOnUse" gradientTransform="translate(332 332.938) rotate(90) scale(349.759)">
<stop stop-color="white"/>
<stop offset="1" stop-color="white" stop-opacity="0"/>
</radialGradient>
<linearGradient id="paint1_linear_2002_47" x1="141.949" y1="-81.5932" x2="363.282" y2="699.638" gradientUnits="userSpaceOnUse">
<stop offset="0.416946"/>
<stop offset="0.880782" stop-opacity="0.02"/>
</linearGradient>
<clipPath id="clip0_2002_47">
<rect width="664" height="665" fill="white"/>
</clipPath>
</defs>
</svg>
